<?xml version="1.0" encoding="utf-8"?><svg width="100%" height="100%" version="1.1" viewBox="22.196849822998 13.7978998819987 837.496044158936 484.740146636966" xmlns:xlink="http://www.w3.org/1999/xlink" xmlns="http://www.w3.org/2000/svg"><defs /><marker id="marker1" markerUnits="strokeWidth" orient="auto" refX="11.1725422772867" refY="0" markerWidth="13.2724723815918" markerHeight="10.2295475006104" viewBox="-1 -5.11477375030518 13.2724723815918 10.2295475006104"><path d="M11.2724725541685 4.11477368946542 L0 0 L11.2724725541685 -4.11477368946542 Z " fill="#000000" fill-opacity="1" stroke="#000000" stroke-opacity="1" /></marker><marker id="marker2" markerUnits="strokeWidth" orient="auto" refX="11.1725422772867" refY="0" markerWidth="13.2724723815918" markerHeight="10.2295475006104" viewBox="-1 -5.11477375030518 13.2724723815918 10.2295475006104"><path d="M11.2724725541685 4.11477368946542 L0 0 L11.2724725541685 -4.11477368946542 Z " fill="#000000" fill-opacity="1" stroke="#000000" stroke-opacity="1" /></marker><marker id="marker3" markerUnits="strokeWidth" orient="auto" refX="11.1725422772867" refY="0" markerWidth="13.2724723815918" markerHeight="10.2295475006104" viewBox="-1 -5.11477375030518 13.2724723815918 10.2295475006104"><path d="M11.2724725541685 4.11477368946542 L0 0 L11.2724725541685 -4.11477368946542 Z " fill="#000000" fill-opacity="1" stroke="#000000" stroke-opacity="1" /></marker><marker id="marker4" markerUnits="strokeWidth" orient="auto" refX="11.1725422772867" refY="0" markerWidth="13.2724723815918" markerHeight="10.2295475006104" viewBox="-1 -5.11477375030518 13.2724723815918 10.2295475006104"><path d="M11.2724725541685 4.11477368946542 L0 0 L11.2724725541685 -4.11477368946542 Z " fill="#000000" fill-opacity="1" stroke="#000000" stroke-opacity="1" /></marker><marker id="marker5" markerUnits="strokeWidth" orient="auto" refX="11.1725422772867" refY="0" markerWidth="13.2724723815918" markerHeight="10.2295475006104" viewBox="-1 -5.11477375030518 13.2724723815918 10.2295475006104"><path d="M11.2724725541685 4.11477368946542 L0 0 L11.2724725541685 -4.11477368946542 Z " fill="#000000" fill-opacity="1" stroke="#000000" stroke-opacity="1" /></marker><marker id="marker6" markerUnits="strokeWidth" orient="auto" refX="11.1725422772867" refY="0" markerWidth="13.2724723815918" markerHeight="10.2295475006104" viewBox="-1 -5.11477375030518 13.2724723815918 10.2295475006104"><path d="M11.2724725541685 4.11477368946542 L0 0 L11.2724725541685 -4.11477368946542 Z " fill="#000000" fill-opacity="1" stroke="#000000" stroke-opacity="1" /></marker><marker id="marker7" markerUnits="strokeWidth" orient="auto" refX="11.1725422772867" refY="0" markerWidth="13.2724723815918" markerHeight="10.2295475006104" viewBox="-1 -5.11477375030518 13.2724723815918 10.2295475006104"><path d="M11.2724725541685 4.11477368946542 L0 0 L11.2724725541685 -4.11477368946542 Z " fill="#000000" fill-opacity="1" stroke="#000000" stroke-opacity="1" /></marker><marker id="marker8" markerUnits="strokeWidth" orient="auto" refX="11.1725422772867" refY="0" markerWidth="13.2724723815918" markerHeight="10.2295475006104" viewBox="-1 -5.11477375030518 13.2724723815918 10.2295475006104"><path d="M11.2724725541685 4.11477368946542 L0 0 L11.2724725541685 -4.11477368946542 Z " fill="#000000" fill-opacity="1" stroke="#000000" stroke-opacity="1" /></marker><marker id="marker9" markerUnits="strokeWidth" orient="auto" refX="11.1725422772867" refY="0" markerWidth="13.2724723815918" markerHeight="10.2295475006104" viewBox="-1 -5.11477375030518 13.2724723815918 10.2295475006104"><path d="M11.2724725541685 4.11477368946542 L0 0 L11.2724725541685 -4.11477368946542 Z " fill="#000000" fill-opacity="1" stroke="#000000" stroke-opacity="1" /></marker><marker id="marker10" markerUnits="strokeWidth" orient="auto" refX="11.1725422772867" refY="0" markerWidth="13.2724723815918" markerHeight="10.2295475006104" viewBox="-1 -5.11477375030518 13.2724723815918 10.2295475006104"><path d="M11.2724725541685 4.11477368946542 L0 0 L11.2724725541685 -4.11477368946542 Z " fill="#000000" fill-opacity="1" stroke="#000000" stroke-opacity="1" /></marker><marker id="marker11" markerUnits="strokeWidth" orient="auto" refX="11.1725422772867" refY="0" markerWidth="13.2724723815918" markerHeight="10.2295475006104" viewBox="-1 -5.11477375030518 13.2724723815918 10.2295475006104"><path d="M11.2724725541685 4.11477368946542 L0 0 L11.2724725541685 -4.11477368946542 Z " fill="#000000" fill-opacity="1" stroke="#000000" stroke-opacity="1" /></marker><marker id="marker12" markerUnits="strokeWidth" orient="auto" refX="11.1725422772867" refY="0" markerWidth="13.2724723815918" markerHeight="10.2295475006104" viewBox="-1 -5.11477375030518 13.2724723815918 10.2295475006104"><path d="M11.2724725541685 4.11477368946542 L0 0 L11.2724725541685 -4.11477368946542 Z " fill="#000000" fill-opacity="1" stroke="#000000" stroke-opacity="1" /></marker><marker id="marker13" markerUnits="strokeWidth" orient="auto" refX="11.1725422772867" refY="0" markerWidth="13.2724723815918" markerHeight="10.2295475006104" viewBox="-1 -5.11477375030518 13.2724723815918 10.2295475006104"><path d="M11.2724725541685 4.11477368946542 L0 0 L11.2724725541685 -4.11477368946542 Z " fill="#000000" fill-opacity="1" stroke="#000000" stroke-opacity="1" /></marker><marker id="marker14" markerUnits="strokeWidth" orient="auto" refX="11.1725422772867" refY="0" markerWidth="13.2724723815918" markerHeight="10.2295475006104" viewBox="-1 -5.11477375030518 13.2724723815918 10.2295475006104"><path d="M11.2724725541685 4.11477368946542 L0 0 L11.2724725541685 -4.11477368946542 Z " fill="#000000" fill-opacity="1" stroke="#000000" stroke-opacity="1" /></marker><marker id="marker15" markerUnits="strokeWidth" orient="auto" refX="11.1725422772867" refY="0" markerWidth="13.2724723815918" markerHeight="10.2295475006104" viewBox="-1 -5.11477375030518 13.2724723815918 10.2295475006104"><path d="M11.2724725541685 4.11477368946542 L0 0 L11.2724725541685 -4.11477368946542 Z " fill="#000000" fill-opacity="1" stroke="#000000" stroke-opacity="1" /></marker><marker id="marker16" markerUnits="strokeWidth" orient="auto" refX="11.1725422772867" refY="0" markerWidth="13.2724723815918" markerHeight="10.2295475006104" viewBox="-1 -5.11477375030518 13.2724723815918 10.2295475006104"><path d="M11.2724725541685 4.11477368946542 L0 0 L11.2724725541685 -4.11477368946542 Z " fill="#000000" fill-opacity="1" stroke="#000000" stroke-opacity="1" /></marker><marker id="marker17" markerUnits="strokeWidth" orient="auto" refX="11.1725422772867" refY="0" markerWidth="13.2724723815918" markerHeight="10.2295475006104" viewBox="-1 -5.11477375030518 13.2724723815918 10.2295475006104"><path d="M11.2724725541685 4.11477368946542 L0 0 L11.2724725541685 -4.11477368946542 Z " fill="#000000" fill-opacity="1" stroke="#000000" stroke-opacity="1" /></marker><marker id="marker18" markerUnits="strokeWidth" orient="auto" refX="11.1725422772867" refY="0" markerWidth="13.2724723815918" markerHeight="10.2295475006104" viewBox="-1 -5.11477375030518 13.2724723815918 10.2295475006104"><path d="M11.2724725541685 4.11477368946542 L0 0 L11.2724725541685 -4.11477368946542 Z " fill="#000000" fill-opacity="1" stroke="#000000" stroke-opacity="1" /></marker><marker id="marker19" markerUnits="strokeWidth" orient="auto" refX="11.1725422772867" refY="0" markerWidth="13.2724723815918" markerHeight="10.2295475006104" viewBox="-1 -5.11477375030518 13.2724723815918 10.2295475006104"><path d="M11.2724725541685 4.11477368946542 L0 0 L11.2724725541685 -4.11477368946542 Z " fill="#000000" fill-opacity="1" stroke="#000000" stroke-opacity="1" /></marker><marker id="marker20" markerUnits="strokeWidth" orient="auto" refX="11.1725422772867" refY="0" markerWidth="13.2724723815918" markerHeight="10.2295475006104" viewBox="-1 -5.11477375030518 13.2724723815918 10.2295475006104"><path d="M11.2724725541685 4.11477368946542 L0 0 L11.2724725541685 -4.11477368946542 Z " fill="#000000" fill-opacity="1" stroke="#000000" stroke-opacity="1" /></marker><marker id="marker21" markerUnits="strokeWidth" orient="auto" refX="11.1725422772867" refY="0" markerWidth="13.2724723815918" markerHeight="10.2295475006104" viewBox="-1 -5.11477375030518 13.2724723815918 10.2295475006104"><path d="M11.2724725541685 4.11477368946542 L0 0 L11.2724725541685 -4.11477368946542 Z " fill="#000000" fill-opacity="1" stroke="#000000" stroke-opacity="1" /></marker><marker id="marker22" markerUnits="strokeWidth" orient="auto" refX="11.1725422772867" refY="0" markerWidth="13.2724723815918" markerHeight="10.2295475006104" viewBox="-1 -5.11477375030518 13.2724723815918 10.2295475006104"><path d="M11.2724725541685 4.11477368946542 L0 0 L11.2724725541685 -4.11477368946542 Z " fill="#000000" fill-opacity="1" stroke="#000000" stroke-opacity="1" /></marker><marker id="marker23" markerUnits="strokeWidth" orient="auto" refX="11.1725422772867" refY="0" markerWidth="13.2724723815918" markerHeight="10.2295475006104" viewBox="-1 -5.11477375030518 13.2724723815918 10.2295475006104"><path d="M11.2724725541685 4.11477368946542 L0 0 L11.2724725541685 -4.11477368946542 Z " fill="#000000" fill-opacity="1" stroke="#000000" stroke-opacity="1" /></marker><marker id="marker24" markerUnits="strokeWidth" orient="auto" refX="11.1725422772867" refY="0" markerWidth="13.2724723815918" markerHeight="10.2295475006104" viewBox="-1 -5.11477375030518 13.2724723815918 10.2295475006104"><path d="M11.2724725541685 4.11477368946542 L0 0 L11.2724725541685 -4.11477368946542 Z " fill="#000000" fill-opacity="1" stroke="#000000" stroke-opacity="1" /></marker><g id="layer1"><rect x="167.978998819987" y="16.7978998819987" width="151.181098937988" height="403.149597167969" opacity="1" fill="#F8F8F8" fill-opacity="1" /><rect x="503.936996459961" y="16.7978998819987" width="151.181098937988" height="403.149597167969" opacity="1" fill="#F8F8F8" fill-opacity="1" /><rect x="335.957997639974" y="16.7978998819987" width="151.181098937988" height="403.149597167969" opacity="1" fill="#F8F8F8" fill-opacity="1" /><rect x="671.915995279948" y="16.7978998819987" width="151.181098937988" height="403.149597167969" opacity="1" fill="#F8F8F8" fill-opacity="1" /><text x="197.118377685547" y="56.2077474594116" font-size="24" fill="#000000" fill-opacity="1" font-family="Tahoma" font-weight="normal" font-style="normal">In-House</text><text x="201.958221435547" y="85.2077474594116" font-size="24" fill="#000000" fill-opacity="1" font-family="Tahoma" font-weight="normal" font-style="normal">Systems</text><text x="360.941955566406" y="70.7077484130859" font-size="24" fill="#000000" fill-opacity="1" font-family="Tahoma" font-weight="normal" font-style="normal">Web Sites</text><text x="533.076385498047" y="56.2077474594116" font-size="24" fill="#000000" fill-opacity="1" font-family="Tahoma" font-weight="normal" font-style="normal">In-House</text><text x="555.711151123047" y="85.2077474594116" font-size="24" fill="#000000" fill-opacity="1" font-family="Tahoma" font-weight="normal" font-style="normal">Apps</text><text x="696.613952636719" y="70.7077484130859" font-size="24" fill="#000000" fill-opacity="1" font-family="Tahoma" font-weight="normal" font-style="normal">Web Apps</text><g><rect x="100.787399291992" y="453.543296813965" width="33.5957997639975" height="33.5957997639974" opacity="1" stroke="#000000" stroke-opacity="1" stroke-width="1" stroke-linecap="butt" stroke-linejoin="miter" stroke-dasharray="none" fill="#FFFF66" fill-opacity="1" /><text x="138.383193969727" y="478.253691673279" font-size="24" fill="#000000" fill-opacity="1" font-family="Tahoma" font-weight="normal" font-style="normal">SDMX 2.1 WS + JSON</text></g><rect x="403.149597167969" y="453.543296813963" width="33.5957997639972" height="33.5957997639974" opacity="1" stroke="#000000" stroke-opacity="1" stroke-width="1" stroke-linecap="butt" stroke-linejoin="miter" stroke-dasharray="none" fill="#A6CAFE" fill-opacity="1" /><text x="440.745391845703" y="478.253691673279" font-size="24" fill="#000000" fill-opacity="1" font-family="Tahoma" font-weight="normal" font-style="normal">Cross-Origin Resource Sharing (CORS)</text><text x="92.7397003173828" y="159.093565940857" font-size="24" fill="#000000" fill-opacity="1" font-family="Tahoma" font-weight="normal" font-style="normal">Users</text><text x="99.5482749938965" y="259.880965232849" font-size="24" fill="#000000" fill-opacity="1" font-family="Tahoma" font-weight="normal" font-style="normal">Apps</text><text x="50.294376373291" y="358.766814231873" font-size="24" fill="#000000" fill-opacity="1" font-family="Tahoma" font-weight="normal" font-style="normal">Statistical</text><text x="41.763126373291" y="387.766814231873" font-size="24" fill="#000000" fill-opacity="1" font-family="Tahoma" font-weight="normal" font-style="normal">Databases</text></g><g id="layer2"><rect x="167.978998819987" y="335.957997639974" width="67.1915995279946" height="16.7978998819987" opacity="1" fill="#FFFF66" fill-opacity="1" /><rect x="503.936996459961" y="319.160097757975" width="67.1915995279946" height="16.7978998819987" opacity="1" fill="#A6CAFE" fill-opacity="1" /><rect x="503.936996459961" y="335.957997639974" width="67.1915995279946" height="16.7978998819987" opacity="1" fill="#FFFF66" fill-opacity="1" /><rect x="671.915995279946" y="335.957997639974" width="67.1915995279966" height="16.7978998819987" opacity="1" fill="#FFFF66" fill-opacity="1" /><rect x="671.915995279946" y="319.160097757975" width="67.1915995279966" height="16.7978998819987" opacity="1" fill="#A6CAFE" fill-opacity="1" /><rect x="503.936996459961" y="100.787399291992" width="67.1915995279946" height="201.574798583984" opacity="1" stroke="#000000" stroke-opacity="1" stroke-width="1" stroke-linecap="butt" stroke-linejoin="miter" stroke-dasharray="none" fill-opacity="0" /><rect x="503.936996459961" y="319.160097757975" width="67.1915995279946" height="100.787399291992" opacity="1" stroke="#000000" stroke-opacity="1" stroke-width="1" stroke-linecap="butt" stroke-linejoin="miter" stroke-dasharray="none" fill-opacity="0" /><path d="M520.734896341955 151.181098937988 C520.734896341955 141.942254002887 528.293951288856 134.383199055986 537.532796223957 134.383199055986 C546.771641159058 134.383199055986 554.330696105959 141.942254002887 554.330696105959 151.181098937988 C554.330696105959 160.419943873089 546.771641159058 167.97899881999 537.532796223957 167.97899881999 C528.293951288856 167.97899881999 520.734896341955 160.419943873089 520.734896341955 151.181098937988 Z " opacity="1" stroke="#000000" stroke-opacity="1" stroke-width="1" stroke-linecap="butt" stroke-linejoin="miter" stroke-dasharray="none" fill="#B38EF6" fill-opacity="1" /><path d="M520.734896341955 251.968498229981 C520.734896341955 242.729653294879 528.293951288856 235.170598347978 537.532796223957 235.170598347978 C546.771641159058 235.170598347978 554.330696105959 242.729653294879 554.330696105959 251.968498229981 C554.330696105959 261.207343165082 546.771641159058 268.766398111983 537.532796223957 268.766398111983 C528.293951288856 268.766398111983 520.734896341955 261.207343165082 520.734896341955 251.968498229981 Z " opacity="1" stroke="#000000" stroke-opacity="1" stroke-width="1" stroke-linecap="butt" stroke-linejoin="miter" stroke-dasharray="none" fill="#CBE8BA" fill-opacity="1" /><path d="M520.73489634196 369.553797403971 C520.73489634196 360.314952468873 528.293951288858 352.755897521974 537.532796223957 352.755897521974 C546.771641159055 352.755897521974 554.330696105954 360.314952468873 554.330696105954 369.553797403971 C554.330696105954 378.79264233907 546.771641159055 386.351697285968 537.532796223957 386.351697285968 C528.293951288858 386.351697285968 520.73489634196 378.79264233907 520.73489634196 369.553797403971 Z " opacity="1" stroke="#000000" stroke-opacity="1" stroke-width="1" stroke-linecap="butt" stroke-linejoin="miter" stroke-dasharray="none" fill="#FFC4AE" fill-opacity="1" /><line x1="537.532796223957" y1="180.151541097277" x2="537.532796223957" y2="235.170598347978" marker-start="url(#marker1)" opacity="1" stroke="#000000" stroke-opacity="1" stroke-width="1" stroke-linecap="butt" stroke-linejoin="miter" stroke-dasharray="none" /><line x1="537.532796223957" y1="280.938940389269" x2="537.532796223957" y2="352.755897521974" marker-start="url(#marker2)" opacity="1" stroke="#000000" stroke-opacity="1" stroke-width="1" stroke-linecap="butt" stroke-linejoin="miter" stroke-dasharray="none" /><path d="M604.724395751955 369.553797403971 C604.724395751955 360.314952468873 612.283450698854 352.755897521974 621.522295633952 352.755897521974 C630.76114056905 352.755897521974 638.320195515949 360.314952468873 638.320195515949 369.553797403971 C638.320195515949 378.79264233907 630.76114056905 386.351697285968 621.522295633952 386.351697285968 C612.283450698854 386.351697285968 604.724395751955 378.79264233907 604.724395751955 369.553797403971 Z " opacity="1" stroke="#000000" stroke-opacity="1" stroke-width="1" stroke-linecap="butt" stroke-linejoin="miter" stroke-dasharray="none" fill="#FFC4AE" fill-opacity="1" /><rect x="671.915995279946" y="218.372698465983" width="67.1915995279966" height="83.9894994099937" opacity="1" stroke="#000000" stroke-opacity="1" stroke-width="1" stroke-linecap="butt" stroke-linejoin="miter" stroke-dasharray="none" fill-opacity="0" /><rect x="671.915995279946" y="100.787399291992" width="67.1915995279966" height="100.787399291992" opacity="1" stroke="#000000" stroke-opacity="1" stroke-width="1" stroke-linecap="butt" stroke-linejoin="miter" stroke-dasharray="none" fill-opacity="0" /><rect x="671.915995279946" y="319.160097757975" width="67.1915995279946" height="100.787399291992" opacity="1" stroke="#000000" stroke-opacity="1" stroke-width="1" stroke-linecap="butt" stroke-linejoin="miter" stroke-dasharray="none" fill-opacity="0" /><path d="M688.713895161943 151.181098937988 C688.713895161943 141.942254002887 696.272950108844 134.383199055986 705.511795043946 134.383199055986 C714.750639979047 134.383199055986 722.309694925948 141.942254002887 722.309694925948 151.181098937988 C722.309694925948 160.419943873089 714.750639979047 167.97899881999 705.511795043946 167.97899881999 C696.272950108844 167.97899881999 688.713895161943 160.419943873089 688.713895161943 151.181098937988 Z " opacity="1" stroke="#000000" stroke-opacity="1" stroke-width="1" stroke-linecap="butt" stroke-linejoin="miter" stroke-dasharray="none" fill="#B38EF6" fill-opacity="1" /><path d="M688.713895161943 251.968498229981 C688.713895161943 242.729653294879 696.272950108844 235.170598347978 705.511795043946 235.170598347978 C714.750639979047 235.170598347978 722.309694925948 242.729653294879 722.309694925948 251.968498229981 C722.309694925948 261.207343165082 714.750639979047 268.766398111983 705.511795043946 268.766398111983 C696.272950108844 268.766398111983 688.713895161943 261.207343165082 688.713895161943 251.968498229981 Z " opacity="1" stroke="#000000" stroke-opacity="1" stroke-width="1" stroke-linecap="butt" stroke-linejoin="miter" stroke-dasharray="none" fill="#CBE8BA" fill-opacity="1" /><path d="M688.713895161948 369.553797403971 C688.713895161948 360.314952468873 696.272950108847 352.755897521974 705.511795043946 352.755897521974 C714.750639979044 352.755897521974 722.309694925942 360.314952468873 722.309694925942 369.553797403971 C722.309694925942 378.79264233907 714.750639979044 386.351697285968 705.511795043946 386.351697285968 C696.272950108847 386.351697285968 688.713895161948 378.79264233907 688.713895161948 369.553797403971 Z " opacity="1" stroke="#000000" stroke-opacity="1" stroke-width="1" stroke-linecap="butt" stroke-linejoin="miter" stroke-dasharray="none" fill="#FFC4AE" fill-opacity="1" /><line x1="705.511795043946" y1="180.151541097277" x2="705.511795043946" y2="235.170598347978" marker-start="url(#marker3)" opacity="1" stroke="#000000" stroke-opacity="1" stroke-width="1" stroke-linecap="butt" stroke-linejoin="miter" stroke-dasharray="none" /><line x1="705.511795043946" y1="280.938940389269" x2="705.511795043946" y2="352.755897521974" marker-start="url(#marker4)" opacity="1" stroke="#000000" stroke-opacity="1" stroke-width="1" stroke-linecap="butt" stroke-linejoin="miter" stroke-dasharray="none" /><path d="M772.703394571944 369.553797403971 C772.703394571944 360.314952468873 780.262449518842 352.755897521974 789.501294453941 352.755897521974 C798.740139389039 352.755897521974 806.299194335938 360.314952468873 806.299194335938 369.553797403971 C806.299194335938 378.79264233907 798.740139389039 386.351697285968 789.501294453941 386.351697285968 C780.262449518842 386.351697285968 772.703394571944 378.79264233907 772.703394571944 369.553797403971 Z " opacity="1" stroke="#000000" stroke-opacity="1" stroke-width="1" stroke-linecap="butt" stroke-linejoin="miter" stroke-dasharray="none" fill="#FFC4AE" fill-opacity="1" /><path d="M772.703394571939 251.968498229981 C772.703394571939 242.729653294879 780.26244951884 235.170598347978 789.501294453941 235.170598347978 C798.740139389042 235.170598347978 806.299194335943 242.729653294879 806.299194335943 251.968498229981 C806.299194335943 261.207343165082 798.740139389042 268.766398111983 789.501294453941 268.766398111983 C780.26244951884 268.766398111983 772.703394571939 261.207343165082 772.703394571939 251.968498229981 Z " opacity="1" stroke="#000000" stroke-opacity="1" stroke-width="1" stroke-linecap="butt" stroke-linejoin="miter" stroke-dasharray="none" fill="#CBE8BA" fill-opacity="1" /><path d="M772.703394571933 151.181098937988 C772.703394571933 141.942254002887 780.262449518835 134.383199055986 789.501294453936 134.383199055986 C798.740139389037 134.383199055986 806.299194335938 141.942254002887 806.299194335938 151.181098937988 C806.299194335938 160.419943873089 798.740139389037 167.97899881999 789.501294453936 167.97899881999 C780.262449518835 167.97899881999 772.703394571933 160.419943873089 772.703394571933 151.181098937988 Z " opacity="1" stroke="#000000" stroke-opacity="1" stroke-width="1" stroke-linecap="butt" stroke-linejoin="miter" stroke-dasharray="none" fill="#B38EF6" fill-opacity="1" /><line x1="772.662566982032" y1="275.542716690652" x2="715.275376029632" y2="355.884784024011" marker-start="url(#marker5)" opacity="1" stroke="#000000" stroke-opacity="1" stroke-width="1" stroke-linecap="butt" stroke-linejoin="miter" stroke-dasharray="none" /><line x1="789.501294453937" y1="180.151541097277" x2="789.50129445394" y2="235.170598347978" marker-start="url(#marker6)" opacity="1" stroke="#000000" stroke-opacity="1" stroke-width="1" stroke-linecap="butt" stroke-linejoin="miter" stroke-dasharray="none" /><line x1="724.058220165705" y1="173.436809084099" x2="778.747541002357" y2="239.06399408808" marker-start="url(#marker7)" opacity="1" stroke="#000000" stroke-opacity="1" stroke-width="1" stroke-linecap="butt" stroke-linejoin="miter" stroke-dasharray="none" /><line x1="770.954869332177" y1="173.436809084099" x2="716.265548495529" y2="239.06399408808" marker-start="url(#marker8)" opacity="1" stroke="#000000" stroke-opacity="1" stroke-width="1" stroke-linecap="butt" stroke-linejoin="miter" stroke-dasharray="none" /><path d="M184.776898701982 251.968498229981 C184.776898701982 242.729653294879 192.335953648883 235.170598347978 201.574798583984 235.170598347978 C210.813643519086 235.170598347978 218.372698465986 242.729653294879 218.372698465986 251.968498229981 C218.372698465986 261.207343165082 210.813643519086 268.766398111983 201.574798583984 268.766398111983 C192.335953648883 268.766398111983 184.776898701982 261.207343165082 184.776898701982 251.968498229981 Z " opacity="1" stroke="#000000" stroke-opacity="1" stroke-width="1" stroke-linecap="butt" stroke-linejoin="miter" stroke-dasharray="none" fill="#CBE8BA" fill-opacity="1" /><path d="M184.776898701987 369.553797403971 C184.776898701987 360.314952468873 192.335953648886 352.755897521974 201.574798583984 352.755897521974 C210.813643519083 352.755897521974 218.372698465981 360.314952468873 218.372698465981 369.553797403971 C218.372698465981 378.79264233907 210.813643519083 386.351697285968 201.574798583984 386.351697285968 C192.335953648886 386.351697285968 184.776898701987 378.79264233907 184.776898701987 369.553797403971 Z " opacity="1" stroke="#000000" stroke-opacity="1" stroke-width="1" stroke-linecap="butt" stroke-linejoin="miter" stroke-dasharray="none" fill="#FFC4AE" fill-opacity="1" /><line x1="201.574798583984" y1="280.938940389269" x2="201.574798583984" y2="352.755897521974" marker-start="url(#marker9)" opacity="1" stroke="#000000" stroke-opacity="1" stroke-width="1" stroke-linecap="butt" stroke-linejoin="miter" stroke-dasharray="none" /><path d="M184.776898701982 151.181098937988 C184.776898701982 141.942254002887 192.335953648883 134.383199055986 201.574798583984 134.383199055986 C210.813643519086 134.383199055986 218.372698465986 141.942254002887 218.372698465986 151.181098937988 C218.372698465986 160.419943873089 210.813643519086 167.97899881999 201.574798583984 167.97899881999 C192.335953648883 167.97899881999 184.776898701982 160.419943873089 184.776898701982 151.181098937988 Z " opacity="1" stroke="#000000" stroke-opacity="1" stroke-width="1" stroke-linecap="butt" stroke-linejoin="miter" stroke-dasharray="none" fill="#B38EF6" fill-opacity="1" /><line x1="201.574798583984" y1="180.151541097277" x2="201.574798583984" y2="235.170598347978" marker-start="url(#marker10)" opacity="1" stroke="#000000" stroke-opacity="1" stroke-width="1" stroke-linecap="butt" stroke-linejoin="miter" stroke-dasharray="none" /><rect x="335.957997639972" y="100.787399291992" width="67.1915995279966" height="100.787399291992" opacity="1" stroke="#000000" stroke-opacity="1" stroke-width="1" stroke-linecap="butt" stroke-linejoin="miter" stroke-dasharray="none" fill-opacity="0" /><path d="M352.755897521969 151.181098937988 C352.755897521969 141.942254002887 360.31495246887 134.383199055986 369.553797403971 134.383199055986 C378.792642339073 134.383199055986 386.351697285974 141.942254002887 386.351697285974 151.181098937988 C386.351697285974 160.419943873089 378.792642339073 167.97899881999 369.553797403971 167.97899881999 C360.31495246887 167.97899881999 352.755897521969 160.419943873089 352.755897521969 151.181098937988 Z " opacity="1" stroke="#000000" stroke-opacity="1" stroke-width="1" stroke-linecap="butt" stroke-linejoin="miter" stroke-dasharray="none" fill="#B38EF6" fill-opacity="1" /><path d="M352.755897521969 251.968498229981 C352.755897521969 242.729653294879 360.31495246887 235.170598347978 369.553797403971 235.170598347978 C378.792642339073 235.170598347978 386.351697285974 242.729653294879 386.351697285974 251.968498229981 C386.351697285974 261.207343165082 378.792642339073 268.766398111983 369.553797403971 268.766398111983 C360.31495246887 268.766398111983 352.755897521969 261.207343165082 352.755897521969 251.968498229981 Z " opacity="1" stroke="#000000" stroke-opacity="1" stroke-width="1" stroke-linecap="butt" stroke-linejoin="miter" stroke-dasharray="none" fill="#CBE8BA" fill-opacity="1" /><line x1="369.553797403971" y1="180.151541097277" x2="369.553797403971" y2="235.170598347978" marker-start="url(#marker11)" opacity="1" stroke="#000000" stroke-opacity="1" stroke-width="1" stroke-linecap="butt" stroke-linejoin="miter" stroke-dasharray="none" /><path d="M436.745396931963 151.181098937988 C436.745396931963 141.942254002887 444.304451878864 134.383199055986 453.543296813965 134.383199055986 C462.782141749066 134.383199055986 470.341196695967 141.942254002887 470.341196695967 151.181098937988 C470.341196695967 160.419943873089 462.782141749066 167.97899881999 453.543296813965 167.97899881999 C444.304451878864 167.97899881999 436.745396931963 160.419943873089 436.745396931963 151.181098937988 Z " opacity="1" stroke="#000000" stroke-opacity="1" stroke-width="1" stroke-linecap="butt" stroke-linejoin="miter" stroke-dasharray="none" fill="#B38EF6" fill-opacity="1" /><line x1="434.996871692206" y1="173.436809084099" x2="380.307550855555" y2="239.06399408808" marker-start="url(#marker12)" opacity="1" stroke="#000000" stroke-opacity="1" stroke-width="1" stroke-linecap="butt" stroke-linejoin="miter" stroke-dasharray="none" /><rect x="335.957997639974" y="335.957997639974" width="67.1915995279946" height="16.7978998819987" opacity="1" fill="#FFFF66" fill-opacity="1" /><rect x="419.947497049968" y="100.787399291992" width="67.1915995279931" height="100.787399291992" opacity="1" stroke="#000000" stroke-opacity="1" stroke-width="1" stroke-linecap="butt" stroke-linejoin="miter" stroke-dasharray="none" fill-opacity="0" /><rect x="335.957997639974" y="218.372698465983" width="67.1915995279946" height="201.574798583984" opacity="1" stroke="#000000" stroke-opacity="1" stroke-width="1" stroke-linecap="butt" stroke-linejoin="miter" stroke-dasharray="none" fill-opacity="0" /><rect x="167.978998819987" y="100.787399291996" width="67.1915995279946" height="319.160097757975" opacity="1" stroke="#000000" stroke-opacity="1" stroke-width="1" stroke-linecap="butt" stroke-linejoin="miter" stroke-dasharray="none" fill-opacity="0" /><rect x="755.905494689942" y="100.787399291992" width="67.1915995279931" height="100.787399291992" opacity="1" stroke="#000000" stroke-opacity="1" stroke-width="1" stroke-linecap="butt" stroke-linejoin="miter" stroke-dasharray="none" fill-opacity="0" /><rect x="755.905494689937" y="218.372698465983" width="67.1915995279966" height="83.9894994099937" opacity="1" stroke="#000000" stroke-opacity="1" stroke-width="1" stroke-linecap="butt" stroke-linejoin="miter" stroke-dasharray="none" fill-opacity="0" /><path d="M352.755897521974 369.553797403971 C352.755897521974 360.314952468873 360.314952468873 352.755897521974 369.553797403971 352.755897521974 C378.79264233907 352.755897521974 386.351697285968 360.314952468873 386.351697285968 369.553797403971 C386.351697285968 378.79264233907 378.79264233907 386.351697285968 369.553797403971 386.351697285968 C360.314952468873 386.351697285968 352.755897521974 378.79264233907 352.755897521974 369.553797403971 Z " opacity="1" stroke="#000000" stroke-opacity="1" stroke-width="1" stroke-linecap="butt" stroke-linejoin="miter" stroke-dasharray="none" fill="#FFC4AE" fill-opacity="1" /><line x1="369.553797403971" y1="280.938940389269" x2="369.553797403971" y2="352.755897521974" marker-start="url(#marker13)" opacity="1" stroke="#000000" stroke-opacity="1" stroke-width="1" stroke-linecap="butt" stroke-linejoin="miter" stroke-dasharray="none" /><rect x="587.926495869953" y="319.160097757975" width="67.1915995279946" height="16.7978998819987" opacity="1" fill="#A6CAFE" fill-opacity="1" /><rect x="587.926495869953" y="334.599803949253" width="67.1915995279946" height="16.7978998819987" opacity="1" fill="#FFFF66" fill-opacity="1" /><rect x="587.926495869953" y="319.160097757975" width="67.1915995279966" height="100.787399291992" opacity="1" stroke="#000000" stroke-opacity="1" stroke-width="1" stroke-linecap="butt" stroke-linejoin="miter" stroke-dasharray="none" fill-opacity="0" /><line x1="554.371523695866" y1="275.542716690652" x2="611.758714648266" y2="355.884784024011" marker-start="url(#marker14)" opacity="1" stroke="#000000" stroke-opacity="1" stroke-width="1" stroke-linecap="butt" stroke-linejoin="miter" stroke-dasharray="none" /><rect x="755.905494689942" y="335.957997639974" width="67.1915995279966" height="16.7978998819987" opacity="1" fill="#FFFF66" fill-opacity="1" /><rect x="755.905494689942" y="319.160097757975" width="67.1915995279966" height="16.7978998819987" opacity="1" fill="#A6CAFE" fill-opacity="1" /><line x1="789.501294453941" y1="280.938940389269" x2="789.501294453941" y2="352.755897521974" marker-start="url(#marker15)" opacity="1" stroke="#000000" stroke-opacity="1" stroke-width="1" stroke-linecap="butt" stroke-linejoin="miter" stroke-dasharray="none" /><line x1="722.350522515854" y1="275.542716690652" x2="779.737713468254" y2="355.884784024011" marker-start="url(#marker16)" opacity="1" stroke="#000000" stroke-opacity="1" stroke-width="1" stroke-linecap="butt" stroke-linejoin="miter" stroke-dasharray="none" /><rect x="755.905494689937" y="319.160097757975" width="67.1915995279982" height="100.787399291992" opacity="1" stroke="#000000" stroke-opacity="1" stroke-width="1" stroke-linecap="butt" stroke-linejoin="miter" stroke-dasharray="none" fill-opacity="0" /><rect x="587.926495869953" y="100.787399291992" width="67.1915995279946" height="201.574798583984" opacity="1" stroke="#000000" stroke-opacity="1" stroke-width="1" stroke-linecap="butt" stroke-linejoin="miter" stroke-dasharray="none" fill-opacity="0" /><rect x="251.96849822998" y="335.95799763997" width="67.1915995279946" height="16.7978998819987" opacity="1" fill="#FFFF66" fill-opacity="1" /><path d="M268.766398111976 251.968498229977 C268.766398111976 242.729653294876 276.325453058877 235.170598347975 285.564297993978 235.170598347975 C294.803142929079 235.170598347975 302.36219787598 242.729653294876 302.36219787598 251.968498229977 C302.36219787598 261.207343165078 294.803142929079 268.766398111979 285.564297993978 268.766398111979 C276.325453058877 268.766398111979 268.766398111976 261.207343165078 268.766398111976 251.968498229977 Z " opacity="1" stroke="#000000" stroke-opacity="1" stroke-width="1" stroke-linecap="butt" stroke-linejoin="miter" stroke-dasharray="none" fill="#CBE8BA" fill-opacity="1" /><path d="M268.766398111981 369.553797403968 C268.766398111981 360.31495246887 276.32545305888 352.755897521971 285.564297993978 352.755897521971 C294.803142929076 352.755897521971 302.362197875975 360.31495246887 302.362197875975 369.553797403968 C302.362197875975 378.792642339066 294.803142929076 386.351697285965 285.564297993978 386.351697285965 C276.32545305888 386.351697285965 268.766398111981 378.792642339066 268.766398111981 369.553797403968 Z " opacity="1" stroke="#000000" stroke-opacity="1" stroke-width="1" stroke-linecap="butt" stroke-linejoin="miter" stroke-dasharray="none" fill="#FFC4AE" fill-opacity="1" /><line x1="285.564297993978" y1="280.938940389266" x2="285.564297993978" y2="352.755897521971" marker-start="url(#marker17)" opacity="1" stroke="#000000" stroke-opacity="1" stroke-width="1" stroke-linecap="butt" stroke-linejoin="miter" stroke-dasharray="none" /><path d="M268.766398111976 151.181098937985 C268.766398111976 141.942254002884 276.325453058877 134.383199055983 285.564297993978 134.383199055983 C294.803142929079 134.383199055983 302.36219787598 141.942254002884 302.36219787598 151.181098937985 C302.36219787598 160.419943873086 294.803142929079 167.978998819987 285.564297993978 167.978998819987 C276.325453058877 167.978998819987 268.766398111976 160.419943873086 268.766398111976 151.181098937985 Z " opacity="1" stroke="#000000" stroke-opacity="1" stroke-width="1" stroke-linecap="butt" stroke-linejoin="miter" stroke-dasharray="none" fill="#B38EF6" fill-opacity="1" /><line x1="285.564297993978" y1="180.151541097274" x2="285.564297993978" y2="235.170598347975" marker-start="url(#marker18)" opacity="1" stroke="#000000" stroke-opacity="1" stroke-width="1" stroke-linecap="butt" stroke-linejoin="miter" stroke-dasharray="none" /><path d="M436.745396931963 251.968498229981 C436.745396931963 242.729653294879 444.304451878864 235.170598347978 453.543296813965 235.170598347978 C462.782141749066 235.170598347978 470.341196695967 242.729653294879 470.341196695967 251.968498229981 C470.341196695967 261.207343165082 462.782141749066 268.766398111983 453.543296813965 268.766398111983 C444.304451878864 268.766398111983 436.745396931963 261.207343165082 436.745396931963 251.968498229981 Z " opacity="1" stroke="#000000" stroke-opacity="1" stroke-width="1" stroke-linecap="butt" stroke-linejoin="miter" stroke-dasharray="none" fill="#CBE8BA" fill-opacity="1" /><rect x="419.947497049967" y="335.957997639974" width="67.1915995279946" height="16.7978998819987" opacity="1" fill="#FFFF66" fill-opacity="1" /><path d="M436.745396931968 369.553797403971 C436.745396931968 360.314952468873 444.304451878866 352.755897521974 453.543296813965 352.755897521974 C462.782141749063 352.755897521974 470.341196695962 360.314952468873 470.341196695962 369.553797403971 C470.341196695962 378.79264233907 462.782141749063 386.351697285968 453.543296813965 386.351697285968 C444.304451878866 386.351697285968 436.745396931968 378.79264233907 436.745396931968 369.553797403971 Z " opacity="1" stroke="#000000" stroke-opacity="1" stroke-width="1" stroke-linecap="butt" stroke-linejoin="miter" stroke-dasharray="none" fill="#FFC4AE" fill-opacity="1" /><line x1="453.543296813965" y1="280.938940389269" x2="453.543296813965" y2="352.755897521974" marker-start="url(#marker19)" opacity="1" stroke="#000000" stroke-opacity="1" stroke-width="1" stroke-linecap="butt" stroke-linejoin="miter" stroke-dasharray="none" /><path d="M604.724395751944 151.181098937992 C604.724395751944 141.942254002891 612.283450698845 134.38319905599 621.522295633946 134.38319905599 C630.761140569047 134.38319905599 638.320195515948 141.942254002891 638.320195515948 151.181098937992 C638.320195515948 160.419943873093 630.761140569047 167.978998819994 621.522295633946 167.978998819994 C612.283450698845 167.978998819994 604.724395751944 160.419943873093 604.724395751944 151.181098937992 Z " opacity="1" stroke="#000000" stroke-opacity="1" stroke-width="1" stroke-linecap="butt" stroke-linejoin="miter" stroke-dasharray="none" fill="#B38EF6" fill-opacity="1" /><path d="M604.72439575195 251.968498229981 C604.72439575195 242.729653294879 612.283450698851 235.170598347978 621.522295633952 235.170598347978 C630.761140569053 235.170598347978 638.320195515954 242.729653294879 638.320195515954 251.968498229981 C638.320195515954 261.207343165082 630.761140569053 268.766398111983 621.522295633952 268.766398111983 C612.283450698851 268.766398111983 604.72439575195 261.207343165082 604.72439575195 251.968498229981 Z " opacity="1" stroke="#000000" stroke-opacity="1" stroke-width="1" stroke-linecap="butt" stroke-linejoin="miter" stroke-dasharray="none" fill="#CBE8BA" fill-opacity="1" /><line x1="621.522295633948" y1="180.15154109728" x2="621.522295633951" y2="235.170598347978" marker-start="url(#marker20)" opacity="1" stroke="#000000" stroke-opacity="1" stroke-width="1" stroke-linecap="butt" stroke-linejoin="miter" stroke-dasharray="none" /><line x1="621.522295633952" y1="280.938940389269" x2="621.522295633952" y2="352.755897521974" marker-start="url(#marker21)" opacity="1" stroke="#000000" stroke-opacity="1" stroke-width="1" stroke-linecap="butt" stroke-linejoin="miter" stroke-dasharray="none" /><line x1="604.683568162043" y1="275.542716690652" x2="547.296377209643" y2="355.884784024011" marker-start="url(#marker22)" opacity="1" stroke="#000000" stroke-opacity="1" stroke-width="1" stroke-linecap="butt" stroke-linejoin="miter" stroke-dasharray="none" /><line x1="388.10022252573" y1="173.436809084099" x2="442.789543362381" y2="239.06399408808" marker-start="url(#marker23)" opacity="1" stroke="#000000" stroke-opacity="1" stroke-width="1" stroke-linecap="butt" stroke-linejoin="miter" stroke-dasharray="none" /><line x1="453.543296813965" y1="180.151541097277" x2="453.543296813965" y2="235.170598347978" marker-start="url(#marker24)" opacity="1" stroke="#000000" stroke-opacity="1" stroke-width="1" stroke-linecap="butt" stroke-linejoin="miter" stroke-dasharray="none" /><rect x="419.947497049968" y="218.372698465983" width="67.1915995279946" height="201.574798583984" opacity="1" stroke="#000000" stroke-opacity="1" stroke-width="1" stroke-linecap="butt" stroke-linejoin="miter" stroke-dasharray="none" fill-opacity="0" /><rect x="251.968498229981" y="100.787399291992" width="67.1915995279946" height="319.160097757975" opacity="1" stroke="#000000" stroke-opacity="1" stroke-width="1" stroke-linecap="butt" stroke-linejoin="miter" stroke-dasharray="none" fill-opacity="0" /></g></svg>