<?xml version="1.0" encoding="utf-8"?><svg width="100%" height="100%" version="1.1" viewBox="22.1968498229979 13.7978998819987 837.496044158936 484.740146636965" xmlns:xlink="http://www.w3.org/1999/xlink" xmlns="http://www.w3.org/2000/svg"><defs /><marker id="marker1" markerUnits="strokeWidth" orient="auto" refX="11.1725422772867" refY="0" markerWidth="13.2724723815918" markerHeight="10.2295475006104" viewBox="-1 -5.11477375030518 13.2724723815918 10.2295475006104"><path d="M11.2724725541685 4.11477368946542 L0 0 L11.2724725541685 -4.11477368946542 Z " fill="#000000" fill-opacity="1" stroke="#000000" stroke-opacity="1" /></marker><marker id="marker2" markerUnits="strokeWidth" orient="auto" refX="11.1725422772867" refY="0" markerWidth="13.2724723815918" markerHeight="10.2295475006104" viewBox="-1 -5.11477375030518 13.2724723815918 10.2295475006104"><path d="M11.2724725541685 4.11477368946542 L0 0 L11.2724725541685 -4.11477368946542 Z " fill="#000000" fill-opacity="1" stroke="#000000" stroke-opacity="1" /></marker><marker id="marker3" markerUnits="strokeWidth" orient="auto" refX="11.1725422772867" refY="0" markerWidth="13.2724723815918" markerHeight="10.2295475006104" viewBox="-1 -5.11477375030518 13.2724723815918 10.2295475006104"><path d="M11.2724725541685 4.11477368946542 L0 0 L11.2724725541685 -4.11477368946542 Z " fill="#000000" fill-opacity="1" stroke="#000000" stroke-opacity="1" /></marker><marker id="marker4" markerUnits="strokeWidth" orient="auto" refX="11.1725422772867" refY="0" markerWidth="13.2724723815918" markerHeight="10.2295475006104" viewBox="-1 -5.11477375030518 13.2724723815918 10.2295475006104"><path d="M11.2724725541685 4.11477368946542 L0 0 L11.2724725541685 -4.11477368946542 Z " fill="#000000" fill-opacity="1" stroke="#000000" stroke-opacity="1" /></marker><marker id="marker5" markerUnits="strokeWidth" orient="auto" refX="11.1725422772867" refY="0" markerWidth="13.2724723815918" markerHeight="10.2295475006104" viewBox="-1 -5.11477375030518 13.2724723815918 10.2295475006104"><path d="M11.2724725541685 4.11477368946542 L0 0 L11.2724725541685 -4.11477368946542 Z " fill="#000000" fill-opacity="1" stroke="#000000" stroke-opacity="1" /></marker><marker id="marker6" markerUnits="strokeWidth" orient="auto" refX="11.1725422772867" refY="0" markerWidth="13.2724723815918" markerHeight="10.2295475006104" viewBox="-1 -5.11477375030518 13.2724723815918 10.2295475006104"><path d="M11.2724725541685 4.11477368946542 L0 0 L11.2724725541685 -4.11477368946542 Z " fill="#000000" fill-opacity="1" stroke="#000000" stroke-opacity="1" /></marker><marker id="marker7" markerUnits="strokeWidth" orient="auto" refX="11.1725422772867" refY="0" markerWidth="13.2724723815918" markerHeight="10.2295475006104" viewBox="-1 -5.11477375030518 13.2724723815918 10.2295475006104"><path d="M11.2724725541685 4.11477368946542 L0 0 L11.2724725541685 -4.11477368946542 Z " fill="#000000" fill-opacity="1" stroke="#000000" stroke-opacity="1" /></marker><marker id="marker8" markerUnits="strokeWidth" orient="auto" refX="11.1725422772867" refY="0" markerWidth="13.2724723815918" markerHeight="10.2295475006104" viewBox="-1 -5.11477375030518 13.2724723815918 10.2295475006104"><path d="M11.2724725541685 4.11477368946542 L0 0 L11.2724725541685 -4.11477368946542 Z " fill="#000000" fill-opacity="1" stroke="#000000" stroke-opacity="1" /></marker><marker id="marker9" markerUnits="strokeWidth" orient="auto" refX="11.1725422772867" refY="0" markerWidth="13.2724723815918" markerHeight="10.2295475006104" viewBox="-1 -5.11477375030518 13.2724723815918 10.2295475006104"><path d="M11.2724725541685 4.11477368946542 L0 0 L11.2724725541685 -4.11477368946542 Z " fill="#000000" fill-opacity="1" stroke="#000000" stroke-opacity="1" /></marker><marker id="marker10" markerUnits="strokeWidth" orient="auto" refX="11.1725422772867" refY="0" markerWidth="13.2724723815918" markerHeight="10.2295475006104" viewBox="-1 -5.11477375030518 13.2724723815918 10.2295475006104"><path d="M11.2724725541685 4.11477368946542 L0 0 L11.2724725541685 -4.11477368946542 Z " fill="#000000" fill-opacity="1" stroke="#000000" stroke-opacity="1" /></marker><marker id="marker11" markerUnits="strokeWidth" orient="auto" refX="11.1725422772867" refY="0" markerWidth="13.2724723815918" markerHeight="10.2295475006104" viewBox="-1 -5.11477375030518 13.2724723815918 10.2295475006104"><path d="M11.2724725541685 4.11477368946542 L0 0 L11.2724725541685 -4.11477368946542 Z " fill="#000000" fill-opacity="1" stroke="#000000" stroke-opacity="1" /></marker><marker id="marker12" markerUnits="strokeWidth" orient="auto" refX="11.1725422772867" refY="0" markerWidth="13.2724723815918" markerHeight="10.2295475006104" viewBox="-1 -5.11477375030518 13.2724723815918 10.2295475006104"><path d="M11.2724725541685 4.11477368946542 L0 0 L11.2724725541685 -4.11477368946542 Z " fill="#000000" fill-opacity="1" stroke="#000000" stroke-opacity="1" /></marker><marker id="marker13" markerUnits="strokeWidth" orient="auto" refX="11.1725422772867" refY="0" markerWidth="13.2724723815918" markerHeight="10.2295475006104" viewBox="-1 -5.11477375030518 13.2724723815918 10.2295475006104"><path d="M11.2724725541685 4.11477368946542 L0 0 L11.2724725541685 -4.11477368946542 Z " fill="#000000" fill-opacity="1" stroke="#000000" stroke-opacity="1" /></marker><marker id="marker14" markerUnits="strokeWidth" orient="auto" refX="11.1725422772867" refY="0" markerWidth="13.2724723815918" markerHeight="10.2295475006104" viewBox="-1 -5.11477375030518 13.2724723815918 10.2295475006104"><path d="M11.2724725541685 4.11477368946542 L0 0 L11.2724725541685 -4.11477368946542 Z " fill="#000000" fill-opacity="1" stroke="#000000" stroke-opacity="1" /></marker><marker id="marker15" markerUnits="strokeWidth" orient="auto" refX="11.1725422772867" refY="0" markerWidth="13.2724723815918" markerHeight="10.2295475006104" viewBox="-1 -5.11477375030518 13.2724723815918 10.2295475006104"><path d="M11.2724725541685 4.11477368946542 L0 0 L11.2724725541685 -4.11477368946542 Z " fill="#000000" fill-opacity="1" stroke="#000000" stroke-opacity="1" /></marker><marker id="marker16" markerUnits="strokeWidth" orient="auto" refX="11.1725422772867" refY="0" markerWidth="13.2724723815918" markerHeight="10.2295475006104" viewBox="-1 -5.11477375030518 13.2724723815918 10.2295475006104"><path d="M11.2724725541685 4.11477368946542 L0 0 L11.2724725541685 -4.11477368946542 Z " fill="#000000" fill-opacity="1" stroke="#000000" stroke-opacity="1" /></marker><g id="layer1"><rect x="33.5957997639974" y="117.585299173991" width="789.501294453939" height="67.1915995279948" opacity="1" fill="#F8F8F8" fill-opacity="1" /><rect x="33.5957997639974" y="218.372698465983" width="789.501294453937" height="67.1915995279948" opacity="1" fill="#F8F8F8" fill-opacity="1" /><rect x="33.5957997639974" y="335.957997639974" width="789.501294453936" height="67.1915995279948" opacity="1" fill="#F8F8F8" fill-opacity="1" /><rect x="184.776898701986" y="16.7978998819987" width="100.787399291992" height="419.947497049967" opacity="1" fill="#F8F8F8" fill-opacity="1" /><rect x="167.978998819987" y="335.957997639974" width="134.38319905599" height="16.7978998819987" opacity="1" fill="#FFFF66" fill-opacity="1" /><rect x="520.73489634196" y="16.7978998819987" width="100.787399291992" height="419.947497049967" opacity="1" fill="#F8F8F8" fill-opacity="1" /><rect x="503.936996459961" y="319.160097757975" width="134.38319905599" height="16.7978998819987" opacity="1" fill="#A6CAFE" fill-opacity="1" /><rect x="352.755897521973" y="16.7978998819987" width="100.787399291992" height="419.947497049967" opacity="1" fill="#F8F8F8" fill-opacity="1" /><rect x="688.713895161945" y="16.7978998819987" width="100.787399291992" height="419.947497049967" opacity="1" fill="#F8F8F8" fill-opacity="1" /><rect x="503.936996459961" y="335.957997639974" width="134.38319905599" height="16.7978998819987" opacity="1" fill="#FFFF66" fill-opacity="1" /><rect x="671.915995279946" y="335.957997639974" width="134.38319905599" height="16.7978998819987" opacity="1" fill="#FFFF66" fill-opacity="1" /><rect x="671.915995279948" y="319.160097757975" width="134.38319905599" height="16.7978998819987" opacity="1" fill="#A6CAFE" fill-opacity="1" /><rect x="739.107594807939" y="319.160097757975" width="67.1915995279982" height="100.787399291992" opacity="1" stroke="#000000" stroke-opacity="1" stroke-width="1" stroke-linecap="butt" stroke-linejoin="miter" stroke-dasharray="none" fill-opacity="0" /><rect x="503.936996459961" y="100.787399291992" width="134.38319905599" height="201.574798583984" opacity="1" stroke="#000000" stroke-opacity="1" stroke-width="1" stroke-linecap="butt" stroke-linejoin="miter" stroke-dasharray="none" fill-opacity="0" /><rect x="503.936996459961" y="319.160097757975" width="67.1915995279947" height="100.787399291992" opacity="1" stroke="#000000" stroke-opacity="1" stroke-width="1" stroke-linecap="butt" stroke-linejoin="miter" stroke-dasharray="none" fill-opacity="0" /><path d="M554.330696105952 151.181098937988 C554.330696105952 141.942254002887 561.889751052853 134.383199055986 571.128595987954 134.383199055986 C580.367440923055 134.383199055986 587.926495869956 141.942254002887 587.926495869956 151.181098937988 C587.926495869956 160.419943873089 580.367440923055 167.97899881999 571.128595987954 167.97899881999 C561.889751052853 167.97899881999 554.330696105952 160.419943873089 554.330696105952 151.181098937988 Z " opacity="1" stroke="#000000" stroke-opacity="1" stroke-width="1" stroke-linecap="butt" stroke-linejoin="miter" stroke-dasharray="none" fill="#B38EF6" fill-opacity="1" /><path d="M554.330696105952 251.968498229981 C554.330696105952 242.729653294879 561.889751052853 235.170598347978 571.128595987954 235.170598347978 C580.367440923055 235.170598347978 587.926495869956 242.729653294879 587.926495869956 251.968498229981 C587.926495869956 261.207343165082 580.367440923055 268.766398111983 571.128595987954 268.766398111983 C561.889751052853 268.766398111983 554.330696105952 261.207343165082 554.330696105952 251.968498229981 Z " opacity="1" stroke="#000000" stroke-opacity="1" stroke-width="1" stroke-linecap="butt" stroke-linejoin="miter" stroke-dasharray="none" fill="#CBE8BA" fill-opacity="1" /><path d="M520.734896341963 369.553797403971 C520.734896341963 360.314952468873 528.293951288862 352.755897521974 537.53279622396 352.755897521974 C546.771641159059 352.755897521974 554.330696105957 360.314952468873 554.330696105957 369.553797403971 C554.330696105957 378.79264233907 546.771641159059 386.351697285968 537.53279622396 386.351697285968 C528.293951288862 386.351697285968 520.734896341963 378.79264233907 520.734896341963 369.553797403971 Z " opacity="1" stroke="#000000" stroke-opacity="1" stroke-width="1" stroke-linecap="butt" stroke-linejoin="miter" stroke-dasharray="none" fill="#FFC4AE" fill-opacity="1" /><line x1="571.128595987954" y1="180.151541097277" x2="571.128595987954" y2="235.170598347978" marker-start="url(#marker1)" opacity="1" stroke="#000000" stroke-opacity="1" stroke-width="1" stroke-linecap="butt" stroke-linejoin="miter" stroke-dasharray="none" /><line x1="563.169803442269" y1="279.82427213988" x2="542.147534225849" y2="353.402214397358" marker-start="url(#marker2)" opacity="1" stroke="#000000" stroke-opacity="1" stroke-width="1" stroke-linecap="butt" stroke-linejoin="miter" stroke-dasharray="none" /><path d="M587.926495869956 369.553797403971 C587.926495869956 360.314952468873 595.485550816855 352.755897521974 604.724395751953 352.755897521974 C613.963240687052 352.755897521974 621.52229563395 360.314952468873 621.52229563395 369.553797403971 C621.52229563395 378.79264233907 613.963240687052 386.351697285968 604.724395751953 386.351697285968 C595.485550816855 386.351697285968 587.926495869956 378.79264233907 587.926495869956 369.553797403971 Z " opacity="1" stroke="#000000" stroke-opacity="1" stroke-width="1" stroke-linecap="butt" stroke-linejoin="miter" stroke-dasharray="none" fill="#FFC4AE" fill-opacity="1" /><line x1="579.08738853364" y1="279.82427213988" x2="600.109657750064" y2="353.402214397358" marker-start="url(#marker3)" opacity="1" stroke="#000000" stroke-opacity="1" stroke-width="1" stroke-linecap="butt" stroke-linejoin="miter" stroke-dasharray="none" /><rect x="671.915995279946" y="218.372698465983" width="67.1915995279964" height="83.9894994099935" opacity="1" stroke="#000000" stroke-opacity="1" stroke-width="1" stroke-linecap="butt" stroke-linejoin="miter" stroke-dasharray="none" fill-opacity="0" /><rect x="671.915995279946" y="100.787399291992" width="67.1915995279964" height="100.787399291992" opacity="1" stroke="#000000" stroke-opacity="1" stroke-width="1" stroke-linecap="butt" stroke-linejoin="miter" stroke-dasharray="none" fill-opacity="0" /><rect x="671.915995279946" y="319.160097757975" width="67.1915995279947" height="100.787399291992" opacity="1" stroke="#000000" stroke-opacity="1" stroke-width="1" stroke-linecap="butt" stroke-linejoin="miter" stroke-dasharray="none" fill-opacity="0" /><path d="M688.713895161943 151.181098937988 C688.713895161943 141.942254002887 696.272950108844 134.383199055986 705.511795043945 134.383199055986 C714.750639979046 134.383199055986 722.309694925948 141.942254002887 722.309694925948 151.181098937988 C722.309694925948 160.419943873089 714.750639979046 167.97899881999 705.511795043945 167.97899881999 C696.272950108844 167.97899881999 688.713895161943 160.419943873089 688.713895161943 151.181098937988 Z " opacity="1" stroke="#000000" stroke-opacity="1" stroke-width="1" stroke-linecap="butt" stroke-linejoin="miter" stroke-dasharray="none" fill="#B38EF6" fill-opacity="1" /><path d="M688.713895161943 251.968498229981 C688.713895161943 242.729653294879 696.272950108844 235.170598347978 705.511795043945 235.170598347978 C714.750639979046 235.170598347978 722.309694925948 242.729653294879 722.309694925948 251.968498229981 C722.309694925948 261.207343165082 714.750639979046 268.766398111983 705.511795043945 268.766398111983 C696.272950108844 268.766398111983 688.713895161943 261.207343165082 688.713895161943 251.968498229981 Z " opacity="1" stroke="#000000" stroke-opacity="1" stroke-width="1" stroke-linecap="butt" stroke-linejoin="miter" stroke-dasharray="none" fill="#CBE8BA" fill-opacity="1" /><path d="M688.713895161948 369.553797403971 C688.713895161948 360.314952468873 696.272950108847 352.755897521974 705.511795043945 352.755897521974 C714.750639979044 352.755897521974 722.309694925942 360.314952468873 722.309694925942 369.553797403971 C722.309694925942 378.79264233907 714.750639979044 386.351697285968 705.511795043945 386.351697285968 C696.272950108847 386.351697285968 688.713895161948 378.79264233907 688.713895161948 369.553797403971 Z " opacity="1" stroke="#000000" stroke-opacity="1" stroke-width="1" stroke-linecap="butt" stroke-linejoin="miter" stroke-dasharray="none" fill="#FFC4AE" fill-opacity="1" /><line x1="705.511795043945" y1="180.151541097277" x2="705.511795043945" y2="235.170598347978" marker-start="url(#marker4)" opacity="1" stroke="#000000" stroke-opacity="1" stroke-width="1" stroke-linecap="butt" stroke-linejoin="miter" stroke-dasharray="none" /><line x1="705.511795043945" y1="280.938940389269" x2="705.511795043945" y2="352.755897521974" marker-start="url(#marker5)" opacity="1" stroke="#000000" stroke-opacity="1" stroke-width="1" stroke-linecap="butt" stroke-linejoin="miter" stroke-dasharray="none" /><path d="M755.905494689942 369.553797403971 C755.905494689942 360.314952468873 763.46454963684 352.755897521974 772.703394571939 352.755897521974 C781.942239507037 352.755897521974 789.501294453936 360.314952468873 789.501294453936 369.553797403971 C789.501294453936 378.79264233907 781.942239507037 386.351697285968 772.703394571939 386.351697285968 C763.46454963684 386.351697285968 755.905494689942 378.79264233907 755.905494689942 369.553797403971 Z " opacity="1" stroke="#000000" stroke-opacity="1" stroke-width="1" stroke-linecap="butt" stroke-linejoin="miter" stroke-dasharray="none" fill="#FFC4AE" fill-opacity="1" /><line x1="719.885159460583" y1="277.121885959096" x2="764.36930235786" y2="354.969136029334" marker-start="url(#marker6)" opacity="1" stroke="#000000" stroke-opacity="1" stroke-width="1" stroke-linecap="butt" stroke-linejoin="miter" stroke-dasharray="none" /><path d="M755.905494689937 251.968498229981 C755.905494689937 242.729653294879 763.464549636837 235.170598347978 772.703394571939 235.170598347978 C781.94223950704 235.170598347978 789.501294453941 242.729653294879 789.501294453941 251.968498229981 C789.501294453941 261.207343165082 781.94223950704 268.766398111983 772.703394571939 268.766398111983 C763.464549636837 268.766398111983 755.905494689937 261.207343165082 755.905494689937 251.968498229981 Z " opacity="1" stroke="#000000" stroke-opacity="1" stroke-width="1" stroke-linecap="butt" stroke-linejoin="miter" stroke-dasharray="none" fill="#CBE8BA" fill-opacity="1" /><path d="M755.905494689937 151.181098937988 C755.905494689937 141.942254002887 763.464549636837 134.383199055986 772.703394571939 134.383199055986 C781.94223950704 134.383199055986 789.501294453941 141.942254002887 789.501294453941 151.181098937988 C789.501294453941 160.419943873089 781.94223950704 167.97899881999 772.703394571939 167.97899881999 C763.464549636837 167.97899881999 755.905494689937 160.419943873089 755.905494689937 151.181098937988 Z " opacity="1" stroke="#000000" stroke-opacity="1" stroke-width="1" stroke-linecap="butt" stroke-linejoin="miter" stroke-dasharray="none" fill="#B38EF6" fill-opacity="1" /><line x1="772.703394571939" y1="280.938940389269" x2="772.703394571939" y2="352.755897521974" marker-start="url(#marker7)" opacity="1" stroke="#000000" stroke-opacity="1" stroke-width="1" stroke-linecap="butt" stroke-linejoin="miter" stroke-dasharray="none" /><line x1="758.330030155301" y1="277.121885959096" x2="713.845887258024" y2="354.969136029334" marker-start="url(#marker8)" opacity="1" stroke="#000000" stroke-opacity="1" stroke-width="1" stroke-linecap="butt" stroke-linejoin="miter" stroke-dasharray="none" /><line x1="772.703394571939" y1="180.151541097277" x2="772.703394571939" y2="235.170598347978" marker-start="url(#marker9)" opacity="1" stroke="#000000" stroke-opacity="1" stroke-width="1" stroke-linecap="butt" stroke-linejoin="miter" stroke-dasharray="none" /><line x1="721.581704994434" y1="175.285963863722" x2="763.38559621122" y2="237.991800688903" marker-start="url(#marker10)" opacity="1" stroke="#000000" stroke-opacity="1" stroke-width="1" stroke-linecap="butt" stroke-linejoin="miter" stroke-dasharray="none" /><line x1="756.63348462145" y1="175.285963863722" x2="714.829593404663" y2="237.991800688903" marker-start="url(#marker11)" opacity="1" stroke="#000000" stroke-opacity="1" stroke-width="1" stroke-linecap="butt" stroke-linejoin="miter" stroke-dasharray="none" /><text x="188.719421386719" y="56.2077474594116" font-size="24" fill="#000000" fill-opacity="1" font-family="Tahoma" font-weight="normal" font-style="normal">In-House</text><text x="211.354187011719" y="85.2077474594116" font-size="24" fill="#000000" fill-opacity="1" font-family="Tahoma" font-weight="normal" font-style="normal">Apps</text><text x="352.543014526367" y="70.7077484130859" font-size="24" fill="#000000" fill-opacity="1" font-family="Tahoma" font-weight="normal" font-style="normal">Web Sites</text><text x="524.677429199219" y="56.2077474594116" font-size="24" fill="#000000" fill-opacity="1" font-family="Tahoma" font-weight="normal" font-style="normal">In-House</text><text x="546.216491699219" y="85.2077474594116" font-size="24" fill="#000000" fill-opacity="1" font-family="Tahoma" font-weight="normal" font-style="normal">Tools</text><text x="686.725616455078" y="70.7077484130859" font-size="24" fill="#000000" fill-opacity="1" font-family="Tahoma" font-weight="normal" font-style="normal">Web Tools</text><path d="M218.37269846598 251.968498229981 C218.37269846598 242.729653294879 225.931753412881 235.170598347978 235.170598347982 235.170598347978 C244.409443283083 235.170598347978 251.968498229984 242.729653294879 251.968498229984 251.968498229981 C251.968498229984 261.207343165082 244.409443283083 268.766398111983 235.170598347982 268.766398111983 C225.931753412881 268.766398111983 218.37269846598 261.207343165082 218.37269846598 251.968498229981 Z " opacity="1" stroke="#000000" stroke-opacity="1" stroke-width="1" stroke-linecap="butt" stroke-linejoin="miter" stroke-dasharray="none" fill="#CBE8BA" fill-opacity="1" /><path d="M218.372698465985 369.553797403971 C218.372698465985 360.314952468873 225.931753412884 352.755897521974 235.170598347982 352.755897521974 C244.40944328308 352.755897521974 251.968498229979 360.314952468873 251.968498229979 369.553797403971 C251.968498229979 378.79264233907 244.40944328308 386.351697285968 235.170598347982 386.351697285968 C225.931753412884 386.351697285968 218.372698465985 378.79264233907 218.372698465985 369.553797403971 Z " opacity="1" stroke="#000000" stroke-opacity="1" stroke-width="1" stroke-linecap="butt" stroke-linejoin="miter" stroke-dasharray="none" fill="#FFC4AE" fill-opacity="1" /><line x1="235.170598347982" y1="280.938940389269" x2="235.170598347982" y2="352.755897521974" marker-start="url(#marker12)" opacity="1" stroke="#000000" stroke-opacity="1" stroke-width="1" stroke-linecap="butt" stroke-linejoin="miter" stroke-dasharray="none" /><path d="M218.37269846598 151.181098937988 C218.37269846598 141.942254002887 225.931753412881 134.383199055986 235.170598347982 134.383199055986 C244.409443283083 134.383199055986 251.968498229984 141.942254002887 251.968498229984 151.181098937988 C251.968498229984 160.419943873089 244.409443283083 167.97899881999 235.170598347982 167.97899881999 C225.931753412881 167.97899881999 218.37269846598 160.419943873089 218.37269846598 151.181098937988 Z " opacity="1" stroke="#000000" stroke-opacity="1" stroke-width="1" stroke-linecap="butt" stroke-linejoin="miter" stroke-dasharray="none" fill="#B38EF6" fill-opacity="1" /><line x1="235.170598347982" y1="180.151541097277" x2="235.170598347982" y2="235.170598347978" marker-start="url(#marker13)" opacity="1" stroke="#000000" stroke-opacity="1" stroke-width="1" stroke-linecap="butt" stroke-linejoin="miter" stroke-dasharray="none" /><rect x="335.957997639972" y="100.787399291992" width="67.1915995279966" height="100.787399291992" opacity="1" stroke="#000000" stroke-opacity="1" stroke-width="1" stroke-linecap="butt" stroke-linejoin="miter" stroke-dasharray="none" fill-opacity="0" /><path d="M352.755897521969 151.181098937988 C352.755897521969 141.942254002887 360.31495246887 134.383199055986 369.553797403971 134.383199055986 C378.792642339072 134.383199055986 386.351697285973 141.942254002887 386.351697285973 151.181098937988 C386.351697285973 160.419943873089 378.792642339072 167.97899881999 369.553797403971 167.97899881999 C360.31495246887 167.97899881999 352.755897521969 160.419943873089 352.755897521969 151.181098937988 Z " opacity="1" stroke="#000000" stroke-opacity="1" stroke-width="1" stroke-linecap="butt" stroke-linejoin="miter" stroke-dasharray="none" fill="#B38EF6" fill-opacity="1" /><path d="M386.351697285963 251.968498229981 C386.351697285963 242.729653294879 393.910752232864 235.170598347978 403.149597167965 235.170598347978 C412.388442103066 235.170598347978 419.947497049967 242.729653294879 419.947497049967 251.968498229981 C419.947497049967 261.207343165082 412.388442103066 268.766398111983 403.149597167965 268.766398111983 C393.910752232864 268.766398111983 386.351697285963 261.207343165082 386.351697285963 251.968498229981 Z " opacity="1" stroke="#000000" stroke-opacity="1" stroke-width="1" stroke-linecap="butt" stroke-linejoin="miter" stroke-dasharray="none" fill="#CBE8BA" fill-opacity="1" /><line x1="378.715055608522" y1="178.664873551644" x2="397.837634814506" y2="236.0326111696" marker-start="url(#marker14)" opacity="1" stroke="#000000" stroke-opacity="1" stroke-width="1" stroke-linecap="butt" stroke-linejoin="miter" stroke-dasharray="none" /><path d="M419.947497049964 151.181098937988 C419.947497049964 141.942254002887 427.506551996865 134.383199055986 436.745396931966 134.383199055986 C445.984241867067 134.383199055986 453.543296813968 141.942254002887 453.543296813968 151.181098937988 C453.543296813968 160.419943873089 445.984241867067 167.97899881999 436.745396931966 167.97899881999 C427.506551996865 167.97899881999 419.947497049964 160.419943873089 419.947497049964 151.181098937988 Z " opacity="1" stroke="#000000" stroke-opacity="1" stroke-width="1" stroke-linecap="butt" stroke-linejoin="miter" stroke-dasharray="none" fill="#B38EF6" fill-opacity="1" /><line x1="427.584138727414" y1="178.664873551644" x2="408.461559521426" y2="236.032611169601" marker-start="url(#marker15)" opacity="1" stroke="#000000" stroke-opacity="1" stroke-width="1" stroke-linecap="butt" stroke-linejoin="miter" stroke-dasharray="none" /><rect x="335.957997639974" y="335.957997639974" width="134.38319905599" height="16.7978998819987" opacity="1" fill="#FFFF66" fill-opacity="1" /><rect x="403.149597167969" y="100.787399291992" width="67.1915995279931" height="100.787399291992" opacity="1" stroke="#000000" stroke-opacity="1" stroke-width="1" stroke-linecap="butt" stroke-linejoin="miter" stroke-dasharray="none" fill-opacity="0" /><g><rect x="100.787399291992" y="453.543296813965" width="33.5957997639975" height="33.5957997639974" opacity="1" stroke="#000000" stroke-opacity="1" stroke-width="1" stroke-linecap="butt" stroke-linejoin="miter" stroke-dasharray="none" fill="#FFFF66" fill-opacity="1" /><text x="138.383193969727" y="478.253691673279" font-size="24" fill="#000000" fill-opacity="1" font-family="Tahoma" font-weight="normal" font-style="normal">SDMX 2.1 WS + JSON</text></g><rect x="403.149597167969" y="453.543296813963" width="33.5957997639972" height="33.5957997639974" opacity="1" stroke="#000000" stroke-opacity="1" stroke-width="1" stroke-linecap="butt" stroke-linejoin="miter" stroke-dasharray="none" fill="#A6CAFE" fill-opacity="1" /><text x="440.745391845703" y="478.253691673279" font-size="24" fill="#000000" fill-opacity="1" font-family="Tahoma" font-weight="normal" font-style="normal">Cross-origin resource sharing (CORS)</text><text x="92.7397003173828" y="159.093565940857" font-size="24" fill="#000000" fill-opacity="1" font-family="Tahoma" font-weight="normal" font-style="normal">Users</text><text x="45.3959312438965" y="259.880965232849" font-size="24" fill="#000000" fill-opacity="1" font-family="Tahoma" font-weight="normal" font-style="normal">Web Apps</text><text x="50.2943916320801" y="358.766814231873" font-size="24" fill="#000000" fill-opacity="1" font-family="Tahoma" font-weight="normal" font-style="normal">Statistical</text><text x="41.7631416320801" y="387.766814231873" font-size="24" fill="#000000" fill-opacity="1" font-family="Tahoma" font-weight="normal" font-style="normal">Databases</text><rect x="335.957997639972" y="218.372698465983" width="134.383199055992" height="201.574798583984" opacity="1" stroke="#000000" stroke-opacity="1" stroke-width="1" stroke-linecap="butt" stroke-linejoin="miter" stroke-dasharray="none" fill-opacity="0" /><rect x="167.978998819987" y="100.787399291992" width="134.38319905599" height="319.160097757975" opacity="1" stroke="#000000" stroke-opacity="1" stroke-width="1" stroke-linecap="butt" stroke-linejoin="miter" stroke-dasharray="none" fill-opacity="0" /><rect x="571.128595987954" y="319.160097757975" width="67.1915995279964" height="100.787399291992" opacity="1" stroke="#000000" stroke-opacity="1" stroke-width="1" stroke-linecap="butt" stroke-linejoin="miter" stroke-dasharray="none" fill-opacity="0" /><rect x="739.107594807941" y="100.787399291992" width="67.1915995279966" height="100.787399291992" opacity="1" stroke="#000000" stroke-opacity="1" stroke-width="1" stroke-linecap="butt" stroke-linejoin="miter" stroke-dasharray="none" fill-opacity="0" /><rect x="739.107594807941" y="218.372698465983" width="67.1915995279966" height="83.9894994099937" opacity="1" stroke="#000000" stroke-opacity="1" stroke-width="1" stroke-linecap="butt" stroke-linejoin="miter" stroke-dasharray="none" fill-opacity="0" /><path d="M386.351697285972 369.553797403971 C386.351697285972 360.314952468873 393.91075223287 352.755897521974 403.149597167969 352.755897521974 C412.388442103067 352.755897521974 419.947497049966 360.314952468873 419.947497049966 369.553797403971 C419.947497049966 378.79264233907 412.388442103067 386.351697285968 403.149597167969 386.351697285968 C393.91075223287 386.351697285968 386.351697285972 378.79264233907 386.351697285972 369.553797403971 Z " opacity="1" stroke="#000000" stroke-opacity="1" stroke-width="1" stroke-linecap="butt" stroke-linejoin="miter" stroke-dasharray="none" fill="#FFC4AE" fill-opacity="1" /><line x1="403.149597167966" y1="280.938940389269" x2="403.149597167968" y2="352.755897521974" marker-start="url(#marker16)" opacity="1" stroke="#000000" stroke-opacity="1" stroke-width="1" stroke-linecap="butt" stroke-linejoin="miter" stroke-dasharray="none" /></g></svg>